# xmcd CD database file
#
# Track frame offsets:
#	150
#	19746
#	38631
#	56526
#	80551
#	101199
#	117549
#	143574
#	161145
#	175170
#	194780
#
# Disc length: 2790 seconds
#
# Revision: 0
# Processed by: cddbd v1.5.2PL0 Copyright (c) Steve Scherf et al.
# Submitted via: CDex 1.70beta2
#
DISCID=990ae40b
DTITLE=Blues Power - Até o Fim da Estrada
DYEAR=2006
DGENRE=Blues
TTITLE0=Harlem Shuffle
TTITLE1=Turbilhão
TTITLE2=Até o Fim da Estrada
TTITLE3=Quando a Noite Cai Azul
TTITLE4=Um Novo Começo
TTITLE5=Riscando Paredes
TTITLE6=Shaped By An Angel
TTITLE7=Blue Eye Blues
TTITLE8=Você Não Sabe
TTITLE9=Ao Seu Lado
TTITLE10=Let Me Love You Baby
EXTD=YEAR: 2006
EXTT0=
EXTT1=
EXTT2=
EXTT3=
EXTT4=
EXTT5=
EXTT6=
EXTT7=
EXTT8=
EXTT9=
EXTT10=
PLAYORDER=
